<?xml version="1.0" standalone="no"?>
<svg xmlns="http://www.w3.org/2000/svg" viewBox="0 0 139.56 36" width="139.56" height="36"><g fill="#f65164" color="#f65164" transform="translate(0 3.9999999999999982) scale(0.2800001)"><svg width="100.0" height="100.0" x="0.0" y="0.0" viewBox="0 0 100 100"><path d="M49.831,14.185c-11.014,0-19.939,7.899-19.939,17.645s2.393,43.563,20.334,43.563c17.546,0,19.539-33.818,19.539-43.563  S60.841,14.185,49.831,14.185z M49.703,38.537c-8.658,0-15.674-4.655-15.674-10.398c0-5.739,7.016-10.396,15.674-10.396  s15.678,4.657,15.678,10.396C65.381,33.882,58.36,38.537,49.703,38.537z"></path><rect x="38.169" y="10.956" width="1.392" height="6.886"></rect><path d="M40.891,10.042c0,1.125-0.913,2.039-2.041,2.039c-1.129,0-2.041-0.914-2.041-2.039C36.81,8.913,37.722,8,38.851,8  C39.979,8,40.891,8.913,40.891,10.042z"></path><path d="M31.988,33.898c-2.725,0-4.955,2.034-5.31,4.662c-0.332,0.294-0.656,0.604-0.963,0.947  c-3.261,3.657-4.672,9.706-4.025,17.112c-2.639,1.149-4.781,6.55-0.225,9.728c-0.37-1.668,0.414-5.089,2.825-5.459  c1.671-0.466,4.36,0.927,4.36,4.265c1.998-2.003,2.627-8.841-1.412-8.95c-0.475-5.302,0.271-9.674,2.079-12.281  c0.79,0.455,1.694,0.735,2.67,0.735c2.968,0,5.379-2.407,5.379-5.378C37.367,36.307,34.956,33.898,31.988,33.898z"></path><path d="M79.642,58.062c-0.135-10.955-3.369-17.285-7.252-20.211c-0.629-2.273-2.688-3.952-5.158-3.952  c-2.977,0-5.384,2.409-5.384,5.38c0,2.971,2.407,5.378,5.384,5.378c1.179,0,2.26-0.391,3.146-1.035  c1.818,2.248,3.479,6.458,3.684,13.647c-4.865-0.204-5.679,7.021-1.008,9.547c-0.392-3.283,0.854-5.373,2.803-5.649  c2.686,0.092,2.591,4.517,2.411,5.935C83.041,64.24,82.937,59.44,79.642,58.062z"></path><path d="M37.37,28.908c2.084-1.392,6.401-1.89,8.813-0.808c0.504,0.226,0.818,0.069,0.695-0.469  c-1.414-6.17-9.97-5.037-10.282,0.934C36.567,29.116,36.911,29.214,37.37,28.908z"></path><path d="M52.7,28.204c2.279-1.041,6.619-0.842,8.826,0.612c0.461,0.304,0.796,0.2,0.761-0.351  c-0.407-6.319-9.036-6.565-10.297-0.723C51.874,28.282,52.197,28.433,52.7,28.204z"></path><ellipse cx="50" cy="89.5" rx="14" ry="2.5"></ellipse></svg></g><path fill="#e9ebf9" fill-rule="nonzero" d="M12.24 1.99Q12.60 2.42 12.74 2.69Q12.89 2.95 12.89 3.19L12.89 3.19Q12.89 3.48 12.52 3.86Q12.14 4.25 11.78 4.25L11.78 4.25Q11.30 4.25 11.02 4.10Q10.73 3.96 10.54 3.65L10.54 3.65Q10.15 3.07 9.60 2.65Q9.05 2.23 7.87 2.23L7.87 2.23Q6.86 2.23 5.58 2.69Q4.30 3.14 3.74 3.82L3.74 3.82Q3.26 4.42 2.92 5.64Q2.57 6.86 2.57 8.02L2.57 8.02Q2.57 9.41 3.18 10.57Q3.79 11.74 4.96 12.43Q6.12 13.13 7.75 13.13L7.75 13.13Q8.64 13.13 9.59 12.78Q10.54 12.43 11.23 11.64L11.23 11.64L11.21 11.64Q11.64 11.18 12.29 11.18L12.29 11.18Q12.67 11.18 13.02 11.52Q13.37 11.86 13.37 12.19L13.37 12.19Q13.37 12.55 13.26 12.83Q13.15 13.10 12.86 13.44L12.86 13.44Q11.88 14.54 10.54 14.95Q9.19 15.36 7.32 15.36L7.32 15.36Q5.66 15.36 3.97 14.57Q2.28 13.78 1.37 12.65L1.37 12.65Q0.89 11.95 0.44 10.64Q0 9.34 0 8.52L0 8.52Q0 6.43 0.64 4.55Q1.27 2.66 2.54 1.54L2.54 1.54Q3.38 0.77 4.97 0.38Q6.55 0 7.87 0L7.87 0Q9.48 0 10.40 0.44Q11.33 0.89 12.24 1.99L12.24 1.99ZM15.05 7.22Q14.86 7.22 14.70 7.07Q14.54 6.91 14.54 6.70L14.54 6.70Q14.54 6.14 15.02 5.66L15.02 5.66Q15.17 5.59 15.60 5.42Q16.03 5.26 16.37 5.26L16.37 5.26Q17.28 5.26 17.86 5.75Q18.43 6.24 18.43 7.15L18.43 7.15Q18.43 7.42 18.34 8.28L18.34 8.28Q18.24 9.29 18.24 9.84L18.24 9.84Q18.24 11.52 18.70 12.55L18.70 12.55Q18.86 12.89 19.22 13.08Q19.58 13.27 19.87 13.27L19.87 13.27Q20.57 13.27 21 13.03Q21.43 12.79 21.94 12.26L21.94 12.26Q22.44 11.74 22.60 11.06Q22.75 10.39 22.82 9.22L22.82 9.22Q22.87 8.45 22.92 8.09L22.92 8.09Q23.04 6.94 23.04 6.12L23.04 6.12Q23.04 5.59 23.33 5.24Q23.62 4.90 24.12 4.90L24.12 4.90Q24.41 4.90 24.78 5.08Q25.15 5.26 25.27 5.50L25.27 5.50Q25.42 5.74 25.42 6.29L25.42 6.29Q25.42 6.58 25.34 6.84L25.34 6.84Q25.18 7.44 25.18 8.28L25.18 8.28L25.20 9.53Q25.20 11.23 25.44 12.05L25.44 12.05Q25.56 12.43 25.78 12.83Q25.99 13.22 26.18 13.49L26.18 13.49Q26.66 14.02 26.81 14.22Q26.95 14.42 26.95 14.62L26.95 14.62Q26.95 14.90 26.68 15.16Q26.40 15.41 26.09 15.41L26.09 15.41Q25.20 15.41 24.55 14.81Q23.90 14.21 23.59 13.25L23.59 13.25Q22.78 14.18 22.08 14.76L22.08 14.76Q21.60 15.10 20.90 15.25Q20.21 15.41 19.51 15.41L19.51 15.41Q18.58 15.41 17.62 14.64Q16.66 13.87 16.32 12.86L16.32 12.86Q16.30 12.82 16.19 12.48Q16.08 12.14 16.08 11.47L16.08 11.47Q16.08 10.58 16.18 9.24L16.18 9.24Q16.25 8.38 16.25 7.66L16.25 7.66Q16.25 7.44 16.09 7.30Q15.94 7.15 15.74 7.15L15.74 7.15Q15.60 7.15 15.42 7.19Q15.24 7.22 15.05 7.22L15.05 7.22ZM35.50 9.91Q35.69 10.03 36.25 10.36Q36.82 10.68 37.01 11.11Q37.20 11.54 37.20 12.31L37.20 12.31Q37.20 13.18 36.70 13.84Q36.19 14.50 35.40 14.86L35.40 14.86Q34.82 15.12 34.00 15.26Q33.17 15.41 32.69 15.41L32.69 15.41Q32.21 15.41 31.45 15.26Q30.70 15.12 30.41 15.00L30.41 15.00Q29.66 14.57 29.12 13.94Q28.58 13.32 28.58 12.67L28.58 12.67Q28.58 12.19 28.90 11.92Q29.21 11.64 29.71 11.64L29.71 11.64Q29.95 11.64 30.22 11.82Q30.48 12 30.58 12.19L30.58 12.19Q30.84 12.82 31.46 13.13Q32.09 13.44 32.74 13.44L32.74 13.44Q33.58 13.44 34.30 13.16Q35.02 12.89 35.02 12.41L35.02 12.41Q35.02 12.19 34.91 12.06Q34.80 11.93 34.61 11.78L34.61 11.78Q34.27 11.54 33.60 11.39Q32.93 11.23 32.74 11.18L32.74 11.18Q31.75 10.97 30.82 10.54L30.82 10.54Q29.88 10.08 29.33 9.46Q28.78 8.83 28.78 7.85L28.78 7.85Q28.78 7.20 29.26 6.49Q29.74 5.78 30.34 5.50L30.34 5.50Q30.77 5.33 31.79 5.14Q32.81 4.94 33.17 4.94L33.17 4.94Q33.72 4.94 34.37 5.05Q35.02 5.16 35.35 5.40L35.35 5.40Q36 5.78 36.41 6.20Q36.82 6.62 36.82 7.15L36.82 7.15Q36.82 7.42 36.70 7.72Q36.58 8.02 36.41 8.09L36.41 8.09Q36.05 8.26 35.57 8.26L35.57 8.26Q35.35 8.26 35.22 8.14Q35.09 8.02 34.87 7.75L34.87 7.75Q34.61 7.34 34.37 7.27L34.37 7.27Q34.08 7.20 33.53 7.09Q32.98 6.98 32.78 6.98L32.78 6.98Q32.23 6.98 31.64 7.30Q31.06 7.61 31.06 8.02L31.06 8.02Q31.06 8.23 31.24 8.35Q31.42 8.47 31.62 8.57Q31.82 8.66 31.90 8.69L31.90 8.69Q32.40 8.93 33.01 9.10Q33.62 9.26 33.77 9.31L33.77 9.31Q35.06 9.62 35.50 9.91L35.50 9.91ZM40.61 7.10L39.46 7.01Q39.12 6.96 38.92 6.72Q38.71 6.48 38.71 6.14L38.71 6.14Q38.71 5.98 38.80 5.78Q38.88 5.59 39.05 5.45L39.05 5.45Q39.36 5.14 40.73 5.14L40.73 5.14Q40.92 4.20 40.92 3.24L40.92 3.24Q40.92 2.88 40.90 2.62Q40.87 2.35 40.87 2.21L40.87 2.21Q40.87 1.68 41.27 1.42Q41.66 1.15 42.17 1.15L42.17 1.15Q42.79 1.15 43.02 1.46Q43.25 1.78 43.25 2.62L43.25 2.62Q43.25 3.86 43.03 5.06L43.03 5.06Q43.42 5.06 44.09 5.02L44.09 5.02Q45 4.97 45.41 4.97L45.41 4.97Q45.82 4.97 46.12 5.17Q46.42 5.38 46.42 5.74L46.42 5.74Q46.42 6.67 45.58 6.84L45.58 6.84Q44.69 7.06 42.82 7.10L42.82 7.10Q42.74 8.04 42.74 9.14L42.74 9.14Q42.74 10.87 42.96 11.98L42.96 11.98Q43.10 12.74 43.45 13.09Q43.80 13.44 44.50 13.44L44.50 13.44Q44.90 13.44 45.34 13.22L45.34 13.22Q45.62 13.06 45.86 13.06L45.86 13.06Q46.20 13.06 46.36 13.27Q46.51 13.49 46.51 13.85L46.51 13.85Q46.51 14.52 45.79 14.96Q45.07 15.41 43.94 15.41L43.94 15.41Q43.25 15.41 42.54 15.07Q41.83 14.74 41.35 14.23L41.35 14.23Q41.28 14.16 41.09 13.68Q40.90 13.20 40.75 12.65L40.75 12.65Q40.51 11.52 40.51 9.48L40.51 9.48Q40.51 8.59 40.61 7.10L40.61 7.10ZM57.98 7.61Q58.18 7.94 58.30 8.58Q58.42 9.22 58.42 9.72L58.42 9.72Q58.42 10.66 58.01 12.38L58.01 12.38Q56.35 15.41 53.11 15.41L53.11 15.41Q51.91 15.41 50.66 14.62Q49.42 13.82 48.94 12.79L48.94 12.79Q48.29 10.73 48.29 10.18L48.29 10.18Q48.29 9.22 48.71 8.14Q49.13 7.06 49.78 6.26L49.78 6.26Q50.18 5.71 51.24 5.32Q52.30 4.92 53.16 4.92L53.16 4.92Q54.84 4.92 56.02 5.56Q57.19 6.19 57.98 7.61L57.98 7.61ZM55.90 11.47Q56.02 11.16 56.02 9.86L56.02 9.86Q56.02 9.17 55.76 8.50Q55.51 7.82 55.03 7.34L55.03 7.34Q54.98 7.30 54.77 7.19Q54.55 7.08 54.18 6.97Q53.81 6.86 53.33 6.86L53.33 6.86Q51.98 6.86 51.36 7.94Q50.74 9.02 50.74 10.39L50.74 10.39Q50.74 10.63 50.87 11.30Q51 11.98 51.10 12.14L51.10 12.14Q51.17 12.31 51.47 12.61Q51.77 12.91 52.21 13.14Q52.66 13.37 53.14 13.37L53.14 13.37Q54.22 13.37 54.86 12.85Q55.51 12.34 55.90 11.47L55.90 11.47ZM75.91 14.47Q75.55 13.80 75.46 12.97Q75.36 12.14 75.36 10.68L75.36 10.68Q75.36 9.29 74.98 8.26Q74.59 7.22 73.39 7.22L73.39 7.22Q72.94 7.22 72.49 7.50Q72.05 7.78 71.83 8.18L71.83 8.18Q71.50 8.83 71.38 9.59Q71.26 10.34 71.26 11.33L71.26 11.33Q71.26 11.95 71.33 12.60L71.33 12.60Q71.33 12.79 71.36 13.21Q71.40 13.63 71.40 13.97L71.40 13.97Q71.40 15.41 70.39 15.41L70.39 15.41Q69.07 15.41 69 14.02L69 14.02Q69 13.03 69.02 12.96L69.02 12.96L69.02 11.93Q69.02 11.06 68.95 10.25Q68.88 9.43 68.78 9.02L68.78 9.02Q68.57 8.23 68.22 7.80Q67.87 7.37 67.13 7.37L67.13 7.37Q66.07 7.37 65.42 8.28L65.42 8.28Q64.97 9 64.82 10.03L64.82 10.03Q64.68 11.35 64.62 12.11Q64.56 12.86 64.56 13.85L64.56 13.85Q64.56 14.54 64.33 14.98Q64.10 15.41 63.48 15.41L63.48 15.41Q63.02 15.41 62.53 15.16Q62.04 14.90 62.04 14.47L62.04 14.47Q62.04 14.02 62.14 13.56L62.14 13.56Q62.35 12.19 62.35 8.66L62.35 8.66Q62.35 8.09 62.08 7.55Q61.80 7.01 61.42 7.01L61.42 7.01Q61.32 7.01 61.07 7.10Q60.82 7.20 60.70 7.20L60.70 7.20Q60.38 7.20 60.13 6.91Q59.88 6.62 59.88 6.43L59.88 6.43Q59.88 5.83 60.47 5.41Q61.06 4.99 61.70 4.99L61.70 4.99Q62.59 4.99 63.22 5.54Q63.84 6.10 64.18 7.08L64.18 7.08Q64.73 6.12 65.66 5.53Q66.60 4.94 67.75 4.94L67.75 4.94Q68.47 4.94 68.92 5.12Q69.36 5.30 69.65 5.63Q69.94 5.95 70.39 6.60L70.39 6.60Q70.99 5.83 71.94 5.40Q72.89 4.97 73.90 4.97L73.90 4.97Q75.10 4.97 76.06 5.94Q77.02 6.91 77.35 8.18L77.35 8.18Q77.52 8.83 77.52 10.68L77.52 10.68L77.62 12.07Q77.74 13.32 78.43 13.58L78.43 13.58Q79.25 13.82 79.25 14.09L79.25 14.09Q79.25 14.66 78.96 14.93L78.96 14.93Q78.74 15.07 78.36 15.24Q77.98 15.41 77.76 15.41L77.76 15.41Q76.46 15.41 75.91 14.47L75.91 14.47ZM83.93 1.39Q83.93 2.09 83.88 3.24L83.88 3.24L83.86 4.80Q83.86 7.08 84.19 8.62L84.19 8.62Q84.67 10.78 85.63 11.95L85.63 11.95Q86.52 12.98 87.82 12.98L87.82 12.98Q88.82 12.98 89.62 12.37Q90.41 11.76 90.84 10.85L90.84 10.85Q91.56 9.36 91.56 7.18L91.56 7.18Q91.56 5.86 91.39 4.06L91.39 4.06Q91.25 2.04 91.25 1.03L91.25 1.03Q91.25 0.50 91.87 0.35Q92.50 0.19 93.17 0.19L93.17 0.19Q93.41 0.19 93.72 0.50Q94.03 0.82 94.03 1.18L94.03 1.18Q94.03 1.90 93.96 2.54L93.96 2.54Q93.91 3.26 93.91 3.55L93.91 3.55Q93.91 4.46 94.01 6.10L94.01 6.10Q94.03 6.50 94.06 7.08Q94.08 7.66 94.08 8.40L94.08 8.40Q94.08 10.03 93.30 11.65Q92.52 13.27 91.13 14.32Q89.74 15.36 87.98 15.36L87.98 15.36Q85.30 15.36 83.78 13.62Q82.27 11.88 81.72 9.12L81.72 9.12Q81.41 7.54 81.32 5.81Q81.24 4.08 81.24 1.18L81.24 1.18Q81.24 0.79 81.61 0.46Q81.98 0.12 82.42 0.12L82.42 0.12Q83.93 0.12 83.93 1.39L83.93 1.39ZM101.18 2.06Q101.11 3.60 101.11 5.02L101.11 5.02Q101.11 6.48 101.30 9.31L101.30 9.31Q101.33 9.74 101.40 11.05Q101.47 12.36 101.47 13.44L101.47 13.44Q101.71 13.42 101.99 13.37Q102.26 13.32 102.41 13.32L102.41 13.32Q102.94 13.32 103.25 13.58Q103.56 13.85 103.56 14.40L103.56 14.40Q103.56 14.76 103.27 14.95Q102.98 15.14 102.28 15.23Q101.57 15.31 100.22 15.31L100.22 15.31Q98.74 15.31 97.99 15.22Q97.25 15.12 96.96 14.84Q96.67 14.57 96.67 14.02L96.67 14.02Q96.67 13.61 96.94 13.46Q97.20 13.32 97.68 13.32L97.68 13.32L98.18 13.34L98.98 13.39L98.86 10.56Q98.71 8.26 98.71 6.34L98.71 6.34Q98.71 5.30 98.78 3.50L98.78 3.50L98.83 2.18Q98.02 2.23 97.56 2.23L97.56 2.23Q97.03 2.23 96.85 2.04Q96.67 1.85 96.67 1.25L96.67 1.25Q96.67 0.58 97.60 0.38Q98.52 0.19 100.42 0.19L100.42 0.19Q101.88 0.19 102.61 0.29Q103.34 0.38 103.34 0.72L103.34 0.72Q103.34 1.54 103.00 1.79Q102.65 2.04 101.66 2.04L101.66 2.04L101.18 2.06Z" transform="translate(36, 10.296)"></path></svg>